<?xml version="1.0" standalone="no"?>
<!DOCTYPE svg PUBLIC "-//W3C//DTD SVG 1.1//EN" "http://www.w3.org/Graphics/SVG/1.1/DTD/svg11.dtd" >
<!--
2013-9-30: Created.
-->
<svg>
<metadata>
Created by iconfont
</metadata>
<defs>

<font id="iconfont" horiz-adv-x="1024" >
  <font-face
    font-family="iconfont"
    font-weight="500"
    font-stretch="normal"
    units-per-em="1024"
    ascent="896"
    descent="-128"
  />
    <missing-glyph />
    
    <glyph glyph-name="checked" unicode="&#59144;" d="M512 812C230.4 812 0 581.6 0 300s230.4-512 512-512 512 230.4 512 512S793.6 812 512 812zM819.2 428l-358.4-358.4c-6.4-6.4-19.2-12.8-32-12.8-12.8-6.4-25.6 6.4-32 12.8L211.2 255.2C192 274.4 198.4 300 211.2 319.2c19.2 19.2 44.8 19.2 64 0l153.6-153.6L755.2 492c19.2 19.2 44.8 19.2 64 0S838.4 447.2 819.2 428z"  horiz-adv-x="1024" />

    
    <glyph glyph-name="success" unicode="&#58880;" d="M703.232 584.32l-235.328-336.064-122.624 122.624c-17.216 17.216-43.584 16.704-60.288 0-16.192-16.192-16.576-43.584 0-60.288l156.544-156.544c6.464-6.464 14.080-10.432 22.080-11.968 16.512-4.096 35.2 1.856 45.632 16.832l263.616 376.448c13.376 19.136 8.96 46.016-10.368 59.456-18.56 13.12-45.76 8.832-59.264-10.496zM510.976 896c-282.24 0-510.976-228.736-510.976-510.976s228.736-510.976 510.976-510.976 510.976 228.736 510.976 510.976-228.736 510.976-510.976 510.976zM510.976-74.88c-253.952 0-459.904 205.952-459.904 459.904s205.952 459.904 459.904 459.904 459.904-205.952 459.904-459.904-205.888-459.904-459.904-459.904z"  horiz-adv-x="1024" />

    
    <glyph glyph-name="close" unicode="&#58881;" d="M512 896c-281.6 0-512-230.4-512-512s230.4-512 512-512 512 230.4 512 512c0 281.6-230.4 512-512 512zM755.2 204.8c19.2-19.2 19.2-44.8 0-64-6.4-6.4-19.2-12.8-32-12.8s-19.2 6.4-32 12.8l-179.2 179.2-179.2-179.2c-12.8-6.4-19.2-12.8-32-12.8s-19.2 6.4-32 12.8c-19.2 19.2-19.2 44.8 0 64l179.2 179.2-179.2 179.2c-19.2 19.2-19.2 44.8 0 64s44.8 19.2 64 0l179.2-179.2 179.2 179.2c19.2 19.2 44.8 19.2 64 0s19.2-44.8 0-64l-179.2-179.2 179.2-179.2z"  horiz-adv-x="1024" />

    
    <glyph glyph-name="arrow-down" unicode="&#58882;" d="M96.589 557.118c0 8.341 2.972 16.681 9.017 23.302 12.824 14.074 34.718 15.17 48.896 2.293l357.496-325.021 357.496 325.021c14.179 12.824 36.020 11.781 48.896-2.346 12.719-14.179 11.781-36.072-2.346-48.896l-380.798-346.185c-13.24-11.99-33.362-11.99-46.602 0l-380.693 346.185c-7.558 6.83-11.363 16.213-11.363 25.647z"  horiz-adv-x="1024" />

    
    <glyph glyph-name="arrow-left" unicode="&#58883;" d="M680.541 788.5c8.123 0 16.245-2.894 22.693-8.782 13.758-12.488 14.773-33.861 2.284-47.619l-316.574-348.15 316.524-348.151c12.488-13.808 11.473-35.080-2.284-47.618-13.808-12.387-35.13-11.472-47.618 2.284l-337.134 370.843c-11.676 12.894-11.676 32.49 0 45.385l337.134 370.793c6.701 7.361 15.839 11.016 24.976 11.016z"  horiz-adv-x="1024" />

    
    <glyph glyph-name="arrow-right" unicode="&#58884;" d="M343.692-19.869c-8.109 0-16.217 2.888-22.655 8.767-13.735 12.466-14.749 33.804-2.281 47.538l316.041 347.564-315.991 347.564c-12.519 13.785-11.454 35.020 2.281 47.588 13.785 12.365 35.071 11.454 47.538-2.281l336.566-370.217c11.657-12.872 11.657-32.436 0-45.308l-336.566-370.167c-6.639-7.348-15.762-11.049-24.934-11.049z"  horiz-adv-x="1024" />

    
    <glyph glyph-name="arrow-top" unicode="&#58885;" d="M927.358 210.882c0-8.341-2.972-16.681-9.017-23.302-12.824-14.127-34.77-15.17-48.896-2.346l-357.496 325.073-357.496-325.021c-14.179-12.824-36.020-11.781-48.896 2.346-12.719 14.179-11.781 36.072 2.346 48.896l380.798 346.185c13.24 11.99 33.362 11.99 46.602 0l380.746-346.185c7.506-6.83 11.312-16.213 11.312-25.647z"  horiz-adv-x="1024" />

    
    <glyph glyph-name="stepperplus" unicode="&#59175;" d="M463.552 333.92 0 333.92l0-113.472 463.552 0 0-429.76 113.472 0L577.024 220.448l444.288 0L1021.312 333.92 577.024 333.92 577.024 812 463.552 812 463.552 333.92z"  horiz-adv-x="1024" />

    
    <glyph glyph-name="iconfontbangzhu" unicode="&#59299;" d="M512.003 715.358c114.154 0 221.466-44.457 302.171-125.187 80.726-80.72 125.185-188.033 125.185-302.173 0-114.157-44.457-221.468-125.187-302.173-80.718-80.725-188.031-125.183-302.167-125.183-114.161 0-221.473 44.457-302.178 125.185-80.725 80.722-125.183 188.035-125.183 302.171 0 114.153 44.457 221.467 125.185 302.175 80.722 80.727 188.037 125.185 302.175 125.185M512.003 765.568c-127.57 0-247.482-49.689-337.681-139.892-90.199-90.177-139.89-210.107-139.89-337.678 0-127.568 49.691-247.481 139.89-337.675 90.199-90.227 210.131-139.89 337.681-139.89 127.547 0 247.477 49.687 337.673 139.89 90.207 90.176 139.892 210.107 139.892 337.675 0 127.571-49.686 247.481-139.892 337.678-90.196 90.224-210.105 139.892-337.673 139.892v0zM643.742 522.045c-31.603 28.17-72.837 42.277-123.729 42.277-57.74 0-103.356-16.955-136.886-50.887-33.524-33.935-50.279-80.166-50.279-138.719h0.064c0.885-18.377 16.062-33.005 34.658-33.005s33.774 14.627 34.66 33.005h0.022c0 0.441 0.007 0.875 0.010 1.313 0.001 0.128 0.010 0.254 0.010 0.384 0 0.074-0.005 0.147-0.005 0.221 0.554 86.815 38.682 130.243 114.468 130.243 29.273 0 53.421-8.499 72.433-25.457s28.529-38.704 28.529-65.242c0-30.9-17.632-62.238-52.948-93.977l-26.269-23.398c-25.723-22.969-42.23-42.953-49.463-59.908-7.233-16.976-10.847-44.336-10.847-82.089l0.009-0.086c-0.086-0.961-0.138-1.931-0.138-2.913 0-17.849 14.468-32.314 32.314-32.314 17.028 0 30.966 13.168 32.213 29.877l0.079 0.095 0.357 11.902c0 38.857 18.445 73.312 55.382 103.421 61.855 50.594 92.761 99.041 92.761 145.274 0.002 45.146-15.797 81.791-47.405 109.981zM468.338 41.497c0-24.113 19.548-43.661 43.661-43.661s43.661 19.548 43.661 43.661c0 24.113-19.548 43.661-43.661 43.661-24.113 0-43.661-19.548-43.661-43.661z"  horiz-adv-x="1024" />

    
    <glyph glyph-name="housephoto" unicode="&#59539;" d="M731.2 661.568c-93.888 123.392-42.88 54.4-93.888 123.392L374.976 784.96c-35.328-53.056 0 0-82.176-123.392L10.944 661.568l0-678.528 1002.176 0L1013.12 661.568 731.2 661.568zM512 48.512c-153.472 0-277.952 122.496-277.952 273.792 0 151.232 124.416 273.792 277.952 273.792 153.472 0 277.888-122.56 277.888-273.792C789.888 170.944 665.536 48.512 512 48.512zM869.888 495.36c-24.192 0-43.776 19.648-43.776 43.84s19.584 43.84 43.776 43.84c24.192 0 43.776-19.584 43.776-43.84S894.08 495.36 869.888 495.36zM512 321.344m-206.784 0a3.231 3.231 0 1 0 413.568 0 3.231 3.231 0 1 0-413.568 0Z"  horiz-adv-x="1024" />

    
    <glyph glyph-name="safe" unicode="&#58886;" d="M512 832.999l389.001-167.001v-253.001c0-58-9.844-114.343-29.5-169.001-19.671-54.672-46.5-104-80.5-148-35.344-46-76.672-85.001-124-117.001-47.344-32-99.001-54.656-155.001-68-56 13.344-107.671 36-155.001 68-47.344 32-88.672 71.001-124 117.001-34 44-60.844 93.328-80.5 148-19.671 54.656-29.5 111.001-29.5 169.001v253.002l389.001 166.999zM512 372.999v369.001l-302.999-131.001v-238h302.999v-374c40.656 11.328 78 29.156 112 53.5 34 24.329 64 53.156 90 86.5 26.656 32.656 48.656 68.828 66 108.5 17.328 39.657 29.001 81.5 35.001 125.5h-303.001z"  horiz-adv-x="1024" />

    
    <glyph glyph-name="fangcircle" unicode="&#58887;" d="M968.1848 864H55.8248A24.36 24.36 0 0 1 32.0048 839.16v-910.32c0-13.74 10.68-24.84 23.82-24.84h912.36c13.2 0 23.82 11.1 23.82 24.84V839.16A24.36 24.36 0 0 1 968.1848 864z m-16.92-904.8a13.32 13.32 0 0 0-13.08-13.62H85.8248a13.32 13.32 0 0 0-13.08 13.62V808.8C72.8048 816.36 78.5648 822.42 85.8248 822.42h852.36c7.2 0 13.08-6.06 13.08-13.62v-849.6zM300.4448 112.13999999999999h423.12V280.5H300.4448v-168.36z m483.3 223.44V24h-60.18v33.84H300.4448V24H240.2648V335.58000000000004h543.48zM482.0048 744h60.18v-97.56H872.0048v-55.08H542.1248v-121.2h289.44v-55.08H192.4448v55.08h289.44v121.2H152.0048v55.08h329.88V744z"  horiz-adv-x="1024" />

    
    <glyph glyph-name="processexplain" unicode="&#58888;" d="M512 888.256c-278.528 0-504.256-225.728-504.256-504.256s225.728-504.256 504.256-504.256 504.256 225.728 504.256 504.256c0 278.4-225.856 504.256-504.256 504.256v0 0zM512-60.928c-245.76 0-444.928 199.168-444.928 444.928s199.168 444.928 444.928 444.928c245.76 0 444.928-199.168 444.928-444.928-0.128-245.76-199.296-444.928-444.928-444.928v0 0zM512 636.096c-23.168 0-42.048-18.88-42.048-42.048v-273.152c0-23.168 18.816-42.048 42.048-42.048 23.168 0 42.048 18.88 42.048 42.048v273.216c-0.128 23.168-18.88 41.984-42.048 41.984v0 0zM512 215.936c-23.168 0-42.048-18.816-42.048-42.048 0-23.168 18.816-42.048 42.048-42.048 23.168 0 42.048 18.816 42.048 42.048-0.128 23.168-18.88 42.048-42.048 42.048v0 0zM512 215.936z"  horiz-adv-x="1024" />

    
    <glyph glyph-name="reservationfill" unicode="&#59642;" d="M1023.04 631.488c0 123.008-99.776 222.784-222.784 222.784-64.32 0-122.112-27.456-162.816-71.104C597.696 795.2 555.648 801.792 512 801.792S426.24 795.2 386.496 783.104C345.856 826.752 288.064 854.208 223.744 854.208c-123.008 0-222.784-99.776-222.784-222.784 0-71.936 34.24-135.744 87.168-176.512C82.56 427.264 79.552 398.656 79.552 369.344c0-118.4 47.68-225.536 124.8-303.68l-84.736-84.736c-15.36-15.296-15.36-40.256 0-55.616 15.36-15.36 40.256-15.36 55.616 0l89.536 89.6C334.848-34.112 419.968-63.04 512-63.04c92.224 0 177.536 29.056 247.744 78.336l89.6-89.6c14.912-14.912 39.104-14.912 53.952 0 14.912 14.912 14.912 39.104 0 53.952l-84.8 84.8c77.824 78.208 125.952 185.984 125.952 304.896 0 29.376-3.008 57.92-8.512 85.632C988.8 495.744 1023.04 559.488 1023.04 631.488zM114.112 538.816C92.864 563.968 79.552 595.968 79.552 631.424c0 79.616 64.576 144.128 144.128 144.128 30.592 0 58.88-9.728 82.176-25.92C220.48 703.232 152.512 628.864 114.112 538.816zM689.536 300.608 506.112 300.608c-21.696 0-39.296 17.6-39.296 39.296 0 0.256 0.128 0.448 0.128 0.768L466.944 523.584c0 21.696 17.6 39.296 39.296 39.296 21.696 0 39.296-17.6 39.296-39.296l0-144.32 144 0c21.696 0 39.296-17.6 39.296-39.296S711.232 300.608 689.536 300.608zM909.888 538.816c-38.4 90.048-106.368 164.416-191.808 210.816 23.296 16.192 51.584 25.92 82.24 25.92 79.616 0 144.128-64.576 144.128-144.128C944.448 595.968 931.136 563.968 909.888 538.816z"  horiz-adv-x="1024" />

    
    <glyph glyph-name="failured" unicode="&#58889;" d="M512 896c-282.304 0-512-229.696-512-512s229.696-512 512-512 512 229.696 512 512-229.696 512-512 512zM512-100.352c-267.072 0-484.352 217.28-484.352 484.288 0 267.072 217.28 484.352 484.352 484.352s484.352-217.216 484.352-484.288c0-267.072-217.28-484.352-484.352-484.352zM511.936 245.632c-124.672 0-159.36-53.952-162.88-60.096-6.464-11.2-2.432-25.024 8.768-31.68 11.264-6.72 26.048-3.072 33.216 7.68 0.256 0.384 25.408 36.544 120.896 36.544 100.032 0 118.592-33.152 118.72-33.088 0 0 0 0 0 0 3.456-9.92 12.864-16.192 23.040-16.192v0c2.624 0 5.248 0.448 7.808 1.28 12.736 4.224 19.52 17.728 15.232 30.208-2.304 6.592-26.624 65.344-164.8 65.344zM636.544 508.544c0-30.574 24.786-55.36 55.36-55.36s55.36 24.786 55.36 55.36c0 30.574-24.786 55.36-55.36 55.36-30.574 0-55.36-24.786-55.36-55.36zM276.736 508.544c0-30.574 24.786-55.36 55.36-55.36s55.36 24.786 55.36 55.36c0 30.574-24.786 55.36-55.36 55.36-30.574 0-55.36-24.786-55.36-55.36z"  horiz-adv-x="1024" />

    
    <glyph glyph-name="waiting" unicode="&#59655;" d="M512 896C229.696 896 0 666.304 0 384c0-282.304 229.696-512 512-512 282.304 0 512 229.696 512 512C1024 666.304 794.304 896 512 896zM512-100.352c-267.072 0-484.352 217.28-484.352 484.352S244.928 868.352 512 868.352 996.352 651.072 996.352 384 779.072-100.352 512-100.352zM276.736 384m-55.36 0a0.865 0.865 0 1 0 110.72 0 0.865 0.865 0 1 0-110.72 0ZM512 384m-55.36 0a0.865 0.865 0 1 0 110.72 0 0.865 0.865 0 1 0-110.72 0ZM747.2 384m-55.36 0a0.865 0.865 0 1 0 110.72 0 0.865 0.865 0 1 0-110.72 0Z"  horiz-adv-x="1024" />

    
    <glyph glyph-name="zhuansoildborder" unicode="&#58890;" d="M998.592 874.944h-973.184c-14.016 0-25.408-11.392-25.408-25.408v-931.072c0-14.016 11.392-25.408 25.408-25.408h973.184c14.016 0 25.408 11.392 25.408 25.408v931.072c0 14.016-11.392 25.408-25.408 25.408zM980.544-50.496c0-7.68-6.208-13.952-13.952-13.952h-909.184c-7.68 0-13.952 6.208-13.952 13.952v868.992c0 7.68 6.208 13.952 13.952 13.952h909.248c7.68 0 13.952-6.208 13.952-13.952l-0-868.992zM367.68 362.176h84.288v49.472h-84.288v115.648h-52.416v-115.648h-83.52c21.248 49.472 41.024 106.56 59.2 171.968h157.952v53.248h-144.256c6.848 29.696 13.696 60.864 20.48 93.568l-51.584 7.68c-7.616-35.008-14.464-69.248-22.016-101.248h-89.6v-53.248h75.904c-18.944-70.016-39.488-127.104-61.504-172.736l11.392-48.704h127.552v-114.112c-48.576-8.384-99.456-16-154.112-22.848l6.848-54.016c51.648 6.848 100.224 14.464 147.328 22.848v-154.496h52.416v165.12c36.416 7.616 71.36 16.768 105.536 25.856l-0 51.776c-33.472-8.384-68.416-16.768-105.6-24.384v104.256zM647.104 583.616h195.136v53.248h-184.512c6.080 31.168 11.392 63.936 17.472 97.408l-53.952 5.312c-6.080-35.008-12.16-69.248-18.24-102.72h-119.168v-53.248h108.608c-6.080-28.928-12.928-57.856-19.776-87.488h-110.848v-52.48h97.92c-12.864-50.24-27.328-98.176-42.496-145.408h254.336c-26.56-44.16-62.272-86.016-107.84-126.336-34.944 19.776-72.128 38.784-111.616 55.552l-28.864-43.392c83.52-35.008 164.736-83.712 243.712-144.576l30.4 46.4c-28.096 21.312-57.728 41.088-88.832 60.096 53.888 51.712 93.376 103.488 119.232 155.2v45.76h-242.176c9.856 29.696 19.712 61.632 28.864 96.64h246.784v52.48l-233.92 0 19.776 87.552z"  horiz-adv-x="1024" />

    
    <glyph glyph-name="emptystatusicon" unicode="&#58891;" d="M687.935 424.837h-351.869c-10.954 0-19.917-8.963-19.917-19.917 0-10.954 8.963-19.917 19.917-19.917h351.869c10.954 0 19.917 8.963 19.917 19.917 0 10.954-8.963 19.917-19.917 19.917zM687.935 293.679h-351.869c-10.954 0-19.917-8.963-19.917-19.917 0-10.954 8.963-19.917 19.917-19.917h351.869c10.954 0 19.917 8.963 19.917 19.917 0 10.954-8.963 19.917-19.917 19.917zM687.935 161.964h-351.869c-10.954 0-19.917-8.963-19.917-19.917 0-10.954 8.963-19.917 19.917-19.917h351.869c10.954 0 19.917 8.963 19.917 19.917 0 10.954-8.963 19.917-19.917 19.917zM1023.206 384.794c0 282.332-228.875 511.207-511.206 511.207s-511.206-228.875-511.206-511.207c0-0.265 0.005-0.529 0.006-0.794-0-0.265-0.006-0.529-0.006-0.794 0-282.332 228.875-511.207 511.207-511.207s511.206 228.875 511.206 511.207c0 0.265-0.005 0.529-0.006 0.794 0 0.265 0.006 0.529 0.006 0.794zM180.476 25.295v557.002c0 10.954 8.963 19.917 19.917 19.917h623.214c10.954 0 19.917-8.963 19.917-19.917v-557.002c-87.139-80.429-203.591-129.571-331.524-129.571-127.934-0-244.386 49.142-331.524 129.571z"  horiz-adv-x="1024" />

    
    <glyph glyph-name="failure" unicode="&#59738;" d="M512 896C230.4 896 0 665.6 0 384c0-281.6 230.4-512 512-512s512 230.4 512 512C1024 665.6 793.6 896 512 896L512 896zM512 76.8c-25.6 0-51.2 25.6-51.2 51.2 0 25.6 25.6 51.2 51.2 51.2 25.6 0 51.2-25.6 51.2-51.2C563.2 102.4 537.6 76.8 512 76.8L512 76.8zM563.2 300.8c0-25.6-25.6-51.2-51.2-51.2-25.6 0-51.2 25.6-51.2 51.2L460.8 640c0 25.6 25.6 51.2 51.2 51.2 25.6 0 51.2-25.6 51.2-51.2L563.2 300.8 563.2 300.8z"  horiz-adv-x="1024" />

    
    <glyph glyph-name="check" unicode="&#59830;" d="M839.564 829.935h-655.129c-65.305 0-118.371-53.116-118.371-118.371v-655.177c0-65.255 53.066-118.322 118.371-118.322h655.177c65.255 0 118.322 53.066 118.322 118.371v655.129c0 65.255-53.066 118.371-118.371 118.371zM908.387 56.436c0-37.955-30.869-68.823-68.823-68.823h-655.129c-37.955 0-68.823 30.869-68.823 68.823v655.129c0 37.955 30.869 68.823 68.823 68.823h655.177c37.905 0 68.773-30.869 68.773-68.823v-655.129z"  horiz-adv-x="1024" />

    
    <glyph glyph-name="moneybag_border" unicode="&#58892;" d="M998.59712 896H25.41312A25.984 25.984 0 0 1 0.00512 869.504v-971.008c0-14.656 11.392-26.496 25.408-26.496h973.184c14.08 0 25.408 11.84 25.408 26.496V869.504A25.984 25.984 0 0 1 998.59712 896z m-18.048-965.12a14.208 14.208 0 0 0-13.952-14.528H57.41312a14.208 14.208 0 0 0-13.952 14.528V837.12C43.52512 845.184 49.66912 851.648 57.41312 851.648h909.184c7.68 0 13.952-6.464 13.952-14.528v-906.24zM302.59712 741.312c-7.104-26.944-15.04-53.12-22.912-77.76h149.568v-54.784H260.67712a917.056 917.056 0 0 0-73.6-147.712l-46.72 29.44a866.24 866.24 0 0 1 106.88 262.784l55.36-11.968z m105.28-231.808v-52.416H332.67712V353.91999999999996h109.184v-52.48H332.67712v-175.36a637.12 637.12 0 0 1 119.488 68.224l9.536-51.584a687.552 687.552 0 0 0-186.752-94.464l-23.744 48.448c16.64 5.568 25.28 13.44 25.28 24.64V301.44000000000005H163.33312V353.91999999999996H276.48512V457.088h-52.992v52.416h184.32z m417.024 50.816l-191.488-30.976c0.768-38.08 3.2-73.792 6.272-107.968l197.12 35.712 8.64-53.952-200.192-35.776c1.6-12.672 3.2-25.408 5.504-38.08 6.4-38.08 15.104-73.024 26.24-103.936a702.848 702.848 0 0 1 101.952 126.976l43.52-28.608c-38.784-57.92-79.872-107.968-124.16-150.016 3.136-7.104 6.272-14.272 10.24-20.608 23.744-38.976 45.888-58.752 65.664-58.752 18.24 0 34.048 40.448 47.488 121.408l48.32-32.512c-20.608-99.2-49.92-149.312-89.408-149.312-36.48 1.664-71.296 25.472-105.28 73.088-7.104 9.6-13.44 19.84-18.176 30.208-63.36-50.816-132.16-88.128-204.992-110.4l-32.448 43.712a651.264 651.264 0 0 1 214.464 115.84c-14.272 34.176-25.344 73.088-34.88 115.968-3.904 19.008-7.04 37.248-10.24 54.72l-128.192-23.04-7.936 54.016 129.024 23.04a1202.112 1202.112 0 0 0-7.104 108.8L467.20512 502.4l-8.704 53.12 114.752 18.304V753.28h58.496v-169.92l185.216 29.376 7.936-52.48z m-26.112 99.2l-44.352-30.912c-20.544 30.144-47.488 62.72-82.304 98.432l43.52 27.008c36.416-36.48 64.128-67.456 83.136-94.464z"  horiz-adv-x="1024" />

    
    <glyph glyph-name="flow_password" unicode="&#59893;" d="M515.782953125 611.9694270833334c-64.37221875 0-116.589375-48.186140625-116.589375-107.28703125v-51.907078125h233.24076562500002V504.6823958333333c0 59.16290625-52.279171874999996 107.28703125-116.651390625 107.28703125zM512 885.4583333333334a496.125 496.125 0 1 1 0-992.25A496.125 496.125 0 0 1 512 885.4583333333334z m236.27953125-699.3502031249999c0-27.907031250000003-24.93028125-50.542734375-55.503984374999995-50.542734375H338.790359375c-30.573703125 0-55.503984374999995 22.635703125000003-55.503984374999995 50.79079687499999V401.9845208333333c0 28.15509375 24.68221875 50.8528125 55.503984374999995 50.8528125h13.6434375v50.23265625c0 87.25598437500001 73.240453125 153.42665625000004 163.34915625000002 153.42665625000004s163.28714062499998-66.17067187500001 163.28714062499998-153.42665625000004v-50.542734375h13.6434375c30.63571875 0 55.566-22.635703125000003 55.566-50.79079687499999v-215.628328125zM515.782953125 375.68989583333337c-25.736484375 0-46.635749999999994-19.22484375-46.635749999999994-42.976828125 0-15.876 9.364359375-29.705484375 23.317874999999997-36.961312500000005v-56.55825c0-11.720953125 10.418625000000002-21.333374999999997 23.317874999999997-21.333374999999997s23.317874999999997 9.612421875 23.317874999999997 21.333374999999997v56.55825a41.984578125000006 41.984578125000006 0 0 1 23.317874999999997 36.961312500000005c0 23.68996875-20.899265625 42.976828125-46.635749999999994 42.976828125z"  horiz-adv-x="1024" />

    
    <glyph glyph-name="flow_card" unicode="&#59894;" d="M561.792 285.568h59.072v-59.072h-59.072zM657.792 285.568h59.072v-59.072h-59.072zM465.856 285.568h59.072v-59.072h-59.072zM512 896a512 512 0 1 1 0-1024A512 512 0 0 1 512 896zM216.64 557.568c0 34.56 24.832 62.72 55.168 62.72h464.512c30.4 0 55.296-28.16 55.296-62.72v-55.424H216.64v55.424z m574.976-361.28c0-29.184-24.832-53.12-55.296-53.12H271.808c-30.336 0-55.168 23.936-55.168 53.12V442.496h574.976v-246.208z"  horiz-adv-x="1024" />

    
    <glyph glyph-name="circle" unicode="&#59896;" d="M512 384m-512 0a512 512 0 1 1 1024 0 512 512 0 1 1-1024 0Z"  horiz-adv-x="1024" />

    
    <glyph glyph-name="shanchu" unicode="&#59950;" d="M1437.97203125 888c58.41675 0 106.17665625-46.032328125 106.17665625-102.288375v-797.855625c0-56.256046875-47.75990625-102.240140625-106.175671875-102.240140625H566.10125c-49.200046875 0-421.5841875 356.112421875-543.120046875 473.13590625-22.848328125 21.984046874999997-18.048515625 77.95265625 5.807812500000001 99.12065625C152.14892187499998 567.264046875 517.14040625 888 566.1002656249999 888h871.87275z m0-56.112328125H574.26171875C534.899515625 812.879390625 381.9719375 694.896140625 69.58742187500002 417.744375a39.40846875 39.40846875 0 0 1-2.68734375-21.984046874999997c314.15934375-302.4 468.286875-432.192796875 508.511390625-454.080375h862.5605625c26.399953125 0 47.951859375 20.735859375 47.951859375 46.176046875v797.855625c0 25.4401875-21.55190625 46.17703125-48.00009375 46.17703125z m-432.23906250000005-445.10385937499996l202.656234375-195.21534375a27.35971875 27.35971875 0 0 0 0-39.696890624999995 29.61590625 29.61590625 0 0 0-20.593125-8.20771875 29.61590625 29.61590625 0 0 0-20.543906250000003 8.20771875l-202.7025 195.2645625-202.65721875-195.2645625a29.61590625 29.61590625 0 0 0-20.639390624999997-8.20771875 29.61590625 29.61590625 0 0 0-20.543906250000003 8.20771875 27.312468749999997 27.312468749999997 0 0 0 0 39.696890624999995l202.65525000000002 195.21534375-202.65525000000002 195.216328125a27.312468749999997 27.312468749999997 0 0 0 0 39.69590625 29.904328125000003 29.904328125000003 0 0 0 41.183296875 0l202.656234375-195.263578125 202.70446875 195.263578125a29.904328125000003 29.904328125000003 0 0 0 41.136046875 0 27.35971875 27.35971875 0 0 0 0-39.69590625L1005.73296875 386.78381249999995z"  horiz-adv-x="1560" />

    
    <glyph glyph-name="only_rightcheck" unicode="&#59955;" d="M651.264 363.72479999999996c-127.3856-196.8128-172.032-304.80896-172.032-304.80896s-140.22144 146.0224-210.26304 209.57696c-70.10816 63.488-114.82112 95.232-114.82112 95.232l76.52352 95.16544 210.3296-152.3712s89.2928 107.9296 229.376 228.5568c140.42624 120.55552 229.5808 171.4176 229.5808 171.4176l38.16448-38.0928s-159.3344-107.9296-286.85824-304.67584z"  horiz-adv-x="1024" />

    


  </font>
</defs>
</svg>
